<svg width="20" height="22" viewBox="0 0 20 22" fill="none" xmlns="http://www.w3.org/2000/svg">
<path d="M15.8065 2.34652C18.3468 4.29834 20 7.49064 20 11.1037C20 17.0372 15.5323 21.8473 10.0202 21.8604C4.51613 21.8734 0.00807187 17.0459 7.35953e-06 11.121C-0.0040249 7.50799 1.6492 4.30701 4.18549 2.35086C4.65726 1.99085 5.31452 2.14266 5.59678 2.68483L6.23388 3.90364C6.47178 4.35906 6.35888 4.93593 5.96775 5.24822C4.29436 6.58413 3.22581 8.70077 3.22581 11.0993C3.22178 15.1027 6.22984 18.3905 10 18.3905C13.6936 18.3905 16.7984 15.1721 16.7742 11.056C16.7621 8.8092 15.7782 6.64052 14.0282 5.24388C13.6371 4.93159 13.5282 4.35472 13.7661 3.90364L14.4032 2.68483C14.6855 2.147 15.3387 1.98652 15.8065 2.34652ZM11.6129 11.4507V1.04097C11.6129 0.464099 11.1815 0 10.6452 0H9.35484C8.81855 0 8.3871 0.464099 8.3871 1.04097V11.4507C8.3871 12.0275 8.81855 12.4916 9.35484 12.4916H10.6452C11.1815 12.4916 11.6129 12.0275 11.6129 11.4507Z" fill="#F71B1B"/>
</svg>
