<svg width="22" height="18" viewBox="0 0 22 18" fill="none" xmlns="http://www.w3.org/2000/svg">
<path d="M10.1092 0.234046C10.367 0.082017 10.6789 0 10.9992 0C11.3195 0 11.6313 0.082017 11.8892 0.234046L21.3862 5.83791C22.5102 6.50189 21.9842 7.90025 20.6462 7.99785H1.35217C0.0141693 7.90025 -0.510831 6.50189 0.612169 5.83791L10.1102 0.234046H10.1092ZM10.9992 5.59871C11.397 5.59871 11.7785 5.47229 12.0598 5.24725C12.3411 5.02221 12.4992 4.71699 12.4992 4.39874C12.4992 4.08049 12.3411 3.77527 12.0598 3.55023C11.7785 3.3252 11.397 3.19877 10.9992 3.19877C10.6013 3.19877 10.2198 3.3252 9.93851 3.55023C9.6572 3.77527 9.49917 4.08049 9.49917 4.39874C9.49917 4.71699 9.6572 5.02221 9.93851 5.24725C10.2198 5.47229 10.6013 5.59871 10.9992 5.59871V5.59871ZM16.4992 8.79863H18.9982V13.5985H16.4982V8.79863H16.4992ZM14.4992 13.5985V8.79863H11.9992V13.5985H14.4992ZM9.99917 13.5993V8.79943H7.49917V13.5993H9.99917ZM5.50017 13.5993V8.79943H3.00017V13.5993H5.50017ZM3.25017 14.3993C2.38822 14.3993 1.56157 14.6732 0.952072 15.1608C0.342579 15.6484 0.000169152 16.3097 0.000169152 16.9992V17.3992C0.00116915 17.7312 0.337169 18 0.750169 18H21.2472C21.4461 18 21.6368 17.9368 21.7775 17.8243C21.9182 17.7117 21.9972 17.5591 21.9972 17.4V17C21.9972 16.3105 21.6548 15.6492 21.0453 15.1616C20.4358 14.674 19.6091 14.4001 18.7472 14.4001H3.25117L3.25017 14.3993Z" fill="#9A6DB8"/>
</svg>
