<svg width="23" height="20" viewBox="0 0 23 20" fill="none" xmlns="http://www.w3.org/2000/svg">
<path d="M21.275 0H1.725C1.2675 0 0.828741 0.194327 0.505241 0.540232C0.181741 0.886137 0 1.35528 0 1.84447L0 14.1409C0 14.6301 0.181741 15.0992 0.505241 15.4452C0.828741 15.7911 1.2675 15.9854 1.725 15.9854H10.35V17.215H4.025C3.8725 17.215 3.72625 17.2798 3.61841 17.3951C3.51058 17.5104 3.45 17.6668 3.45 17.8298V19.0595C3.45 19.2226 3.51058 19.3789 3.61841 19.4942C3.72625 19.6095 3.8725 19.6743 4.025 19.6743H18.975C19.1275 19.6743 19.2738 19.6095 19.3816 19.4942C19.4894 19.3789 19.55 19.2226 19.55 19.0595V17.8298C19.55 17.6668 19.4894 17.5104 19.3816 17.3951C19.2738 17.2798 19.1275 17.215 18.975 17.215H12.65V15.9854H21.275C21.7325 15.9854 22.1713 15.7911 22.4948 15.4452C22.8183 15.0992 23 14.6301 23 14.1409V1.84447C23 1.35528 22.8183 0.886137 22.4948 0.540232C22.1713 0.194327 21.7325 0 21.275 0V0ZM20.7 13.5261H2.3V2.45929H20.7V13.5261Z" fill="#5B259E"/>
</svg>
