<svg width="18" height="18" viewBox="0 0 18 18" fill="none" xmlns="http://www.w3.org/2000/svg">
<path d="M8.99999 10.3499C9.74558 10.3499 10.35 9.74549 10.35 8.9999C10.35 8.25432 9.74558 7.6499 8.99999 7.6499C8.25441 7.6499 7.64999 8.25432 7.64999 8.9999C7.64999 9.74549 8.25441 10.3499 8.99999 10.3499Z" fill="#9A6DB8"/>
<path d="M16.488 6.633H15.507C15.381 6.633 15.291 6.534 15.237 6.399C15.2048 6.34942 15.1877 6.29159 15.1877 6.2325C15.1877 6.17341 15.2048 6.11558 15.237 6.066L15.966 5.4C16.1089 5.26257 16.2224 5.09761 16.2998 4.91508C16.3771 4.73255 16.4166 4.53624 16.416 4.338C16.4158 4.13855 16.3759 3.94114 16.2987 3.75727C16.2214 3.57339 16.1083 3.40673 15.966 3.267L14.76 2.034C14.6203 1.89332 14.4541 1.78166 14.2711 1.70547C14.0881 1.62928 13.8918 1.59005 13.6935 1.59005C13.4952 1.59005 13.2989 1.62928 13.1159 1.70547C12.9329 1.78166 12.7667 1.89332 12.627 2.034L11.934 2.7C11.8789 2.73528 11.8149 2.75404 11.7495 2.75404C11.6841 2.75404 11.6201 2.73528 11.565 2.7C11.5107 2.67973 11.4632 2.64444 11.4281 2.59823C11.3931 2.55202 11.3719 2.4968 11.367 2.439V1.512C11.3672 1.11867 11.2141 0.740751 10.9402 0.458455C10.6663 0.176159 10.2932 0.0117062 9.9 2.3341e-10H8.154C7.75216 -7.03459e-06 7.36665 0.159005 7.08166 0.442304C6.79667 0.725603 6.63538 1.11017 6.633 1.512V2.493C6.633 2.619 6.534 2.709 6.399 2.763C6.34942 2.79515 6.29159 2.81226 6.2325 2.81226C6.17341 2.81226 6.11558 2.79515 6.066 2.763L5.4 2.034C5.11495 1.75065 4.73088 1.58928 4.329 1.584C4.13092 1.58439 3.93491 1.6244 3.75253 1.70168C3.57014 1.77896 3.40506 1.89195 3.267 2.034L2.034 3.24C1.8892 3.38014 1.77406 3.54797 1.69543 3.7335C1.6168 3.91904 1.57628 4.11849 1.57628 4.32C1.57628 4.52151 1.6168 4.72096 1.69543 4.9065C1.77406 5.09203 1.8892 5.25986 2.034 5.4L2.7 6.066C2.73528 6.12107 2.75404 6.1851 2.75404 6.2505C2.75404 6.3159 2.73528 6.37993 2.7 6.435C2.67973 6.48935 2.64444 6.53681 2.59823 6.57187C2.55202 6.60693 2.4968 6.62813 2.439 6.633H1.512C1.11099 6.633 0.72641 6.7923 0.442855 7.07585C0.1593 7.35941 2.33411e-10 7.74399 2.3341e-10 8.145V9.846C-7.03459e-06 10.2478 0.159005 10.6334 0.442304 10.9183C0.725603 11.2033 1.11017 11.3646 1.512 11.367H2.493C2.619 11.367 2.709 11.466 2.763 11.601C2.79515 11.6506 2.81226 11.7084 2.81226 11.7675C2.81226 11.8266 2.79515 11.8844 2.763 11.934L2.034 12.6C1.75065 12.885 1.58928 13.2691 1.584 13.671C1.58369 13.8705 1.62335 14.0681 1.70064 14.252C1.77793 14.436 1.89128 14.6026 2.034 14.742L3.24 15.966C3.3797 16.1067 3.54586 16.2183 3.72889 16.2945C3.91193 16.3707 4.10824 16.41 4.3065 16.41C4.50476 16.41 4.70107 16.3707 4.88411 16.2945C5.06714 16.2183 5.2333 16.1067 5.373 15.966L6.066 15.3C6.12107 15.2647 6.1851 15.246 6.2505 15.246C6.3159 15.246 6.37993 15.2647 6.435 15.3C6.48935 15.3203 6.53681 15.3556 6.57187 15.4018C6.60693 15.448 6.62813 15.5032 6.633 15.561V16.542C6.64699 16.9336 6.81245 17.3044 7.0945 17.5764C7.37655 17.8484 7.75318 18.0002 8.145 18H9.846C10.2478 18 10.6334 17.841 10.9183 17.5577C11.2033 17.2744 11.3646 16.8898 11.367 16.488V15.507C11.367 15.381 11.466 15.291 11.601 15.237C11.6506 15.2048 11.7084 15.1877 11.7675 15.1877C11.8266 15.1877 11.8844 15.2048 11.934 15.237L12.618 15.93C12.903 16.2133 13.2871 16.3747 13.689 16.38C13.8871 16.3796 14.0831 16.3396 14.2655 16.2623C14.4479 16.185 14.6129 16.072 14.751 15.93L15.957 14.724C16.0977 14.5843 16.2093 14.4181 16.2855 14.2351C16.3617 14.0521 16.4009 13.8558 16.4009 13.6575C16.4009 13.4592 16.3617 13.2629 16.2855 13.0799C16.2093 12.8969 16.0977 12.7307 15.957 12.591L15.3 11.934C15.2678 11.8844 15.2507 11.8266 15.2507 11.7675C15.2507 11.7084 15.2678 11.6506 15.3 11.601C15.3203 11.5467 15.3556 11.4992 15.4018 11.4641C15.448 11.4291 15.5032 11.4079 15.561 11.403H16.542C16.932 11.3891 17.3016 11.2249 17.5733 10.9447C17.845 10.6646 17.9979 10.2903 18 9.9V8.154C18 7.75216 17.841 7.36665 17.5577 7.08166C17.2744 6.79667 16.8898 6.63538 16.488 6.633V6.633ZM9 12.15C8.37699 12.15 7.76797 11.9653 7.24995 11.6191C6.73194 11.273 6.3282 10.781 6.08978 10.2055C5.85136 9.62987 5.78898 8.99651 5.91053 8.38546C6.03207 7.77442 6.33208 7.21315 6.77261 6.77261C7.21315 6.33208 7.77442 6.03207 8.38546 5.91053C8.99651 5.78898 9.62987 5.85136 10.2055 6.08978C10.781 6.3282 11.273 6.73194 11.6191 7.24995C11.9653 7.76797 12.15 8.37699 12.15 9C12.15 9.83543 11.8181 10.6366 11.2274 11.2274C10.6366 11.8181 9.83543 12.15 9 12.15V12.15Z" fill="#9A6DB8"/>
</svg>
