<svg width="25" height="26" viewBox="0 0 25 26" fill="none" xmlns="http://www.w3.org/2000/svg">
<path d="M9.33516 22.5044V19.1918C9.33516 18.3462 9.98653 17.6607 10.79 17.6607H13.7273C14.1131 17.6607 14.4832 17.822 14.756 18.1092C15.0289 18.3963 15.1821 18.7857 15.1821 19.1918V22.5044C15.1797 22.8559 15.3107 23.1939 15.546 23.4434C15.7814 23.6929 16.1017 23.8332 16.4357 23.8332H18.4396C19.3755 23.8358 20.2739 23.4463 20.9365 22.7508C21.5992 22.0552 21.9716 21.1108 21.9716 20.1259V10.689C21.9716 9.8934 21.6365 9.13873 21.0566 8.62829L14.2397 2.89875C13.0539 1.89417 11.3548 1.92661 10.2044 2.97579L3.54308 8.62829C2.93578 9.12368 2.5728 9.88059 2.55486 10.689V20.1162C2.55486 22.1691 4.13618 23.8332 6.08684 23.8332H8.04498C8.73881 23.8332 9.30268 23.2441 9.30771 22.514L9.33516 22.5044Z" fill="#5B259E"/>
</svg>
