<svg width="50" height="12" viewBox="0 0 50 12" fill="none" xmlns="http://www.w3.org/2000/svg">
<path d="M0 5.49228H50V6.27689H0V5.49228Z" fill="#272727"/>
<path d="M11.1462 5.88486C11.1462 8.92554 8.73153 11.3772 5.76923 11.3772C2.80692 11.3772 0.392308 8.92554 0.392308 5.88486C0.392308 2.84418 2.80692 0.392552 5.76923 0.392552C8.73153 0.392552 11.1462 2.84418 11.1462 5.88486Z" fill="#C4C4C4" stroke="#272727" stroke-width="0.784615"/>
<path d="M30.3769 5.88461C30.3769 8.92529 27.9622 11.3769 24.9999 11.3769C22.0376 11.3769 19.623 8.92529 19.623 5.88461C19.623 2.84394 22.0376 0.392308 24.9999 0.392308C27.9622 0.392308 30.3769 2.84394 30.3769 5.88461Z" fill="#C4C4C4" stroke="#272727" stroke-width="0.784615"/>
<path d="M49.6077 5.88461C49.6077 8.92529 47.1931 11.3769 44.2308 11.3769C41.2685 11.3769 38.8539 8.92529 38.8539 5.88461C38.8539 2.84394 41.2685 0.392308 44.2308 0.392308C47.1931 0.392308 49.6077 2.84394 49.6077 5.88461Z" fill="#C4C4C4" stroke="#272727" stroke-width="0.784615"/>
<ellipse cx="44.2308" cy="5.88472" rx="4.23077" ry="4.31538" fill="#9B51E0"/>
<ellipse cx="5.76922" cy="5.88472" rx="4.23077" ry="4.31538" fill="#9B51E0" fill-opacity="0.1"/>
<ellipse cx="24.9999" cy="5.88472" rx="4.23077" ry="4.31538" fill="#9B51E0" fill-opacity="0.1"/>
</svg>
