<svg width="23" height="19" viewBox="0 0 23 19" fill="none" xmlns="http://www.w3.org/2000/svg">
<path d="M21.275 0H1.725C1.2675 0 0.828741 0.182825 0.505241 0.508256C0.181741 0.833688 0 1.27507 0 1.7353L0 13.3039C0 13.7642 0.181741 14.2055 0.505241 14.531C0.828741 14.8564 1.2675 15.0392 1.725 15.0392H10.35V16.1961H4.025C3.8725 16.1961 3.72625 16.257 3.61841 16.3655C3.51058 16.474 3.45 16.6211 3.45 16.7745V17.9314C3.45 18.0848 3.51058 18.2319 3.61841 18.3404C3.72625 18.4489 3.8725 18.5098 4.025 18.5098H18.975C19.1275 18.5098 19.2738 18.4489 19.3816 18.3404C19.4894 18.2319 19.55 18.0848 19.55 17.9314V16.7745C19.55 16.6211 19.4894 16.474 19.3816 16.3655C19.2738 16.257 19.1275 16.1961 18.975 16.1961H12.65V15.0392H21.275C21.7325 15.0392 22.1713 14.8564 22.4948 14.531C22.8183 14.2055 23 13.7642 23 13.3039V1.7353C23 1.27507 22.8183 0.833688 22.4948 0.508256C22.1713 0.182825 21.7325 0 21.275 0V0ZM20.7 12.7255H2.3V2.31373H20.7V12.7255Z" fill="#5B259E"/>
</svg>
